<?xml version="1.0" standalone="no"?>
<!DOCTYPE svg PUBLIC "-//W3C//DTD SVG 20010904//EN"
 "http://www.w3.org/TR/2001/REC-SVG-20010904/DTD/svg10.dtd">
<svg version="1.0" xmlns="http://www.w3.org/2000/svg"
 width="1024.000000pt" height="1024.000000pt" viewBox="0 0 1024.000000 1024.000000"
 preserveAspectRatio="xMidYMid meet">
<metadata>
Created by potrace 1.16, written by Peter Selinger 2001-2019
</metadata>
<g transform="translate(0.000000,1024.000000) scale(0.100000,-0.100000)"
fill="#000000" stroke="none">
<path d="M2130 7641 c-404 -84 -781 -261 -1100 -517 -114 -91 -309 -287 -402
-404 -282 -353 -465 -776 -533 -1229 -21 -143 -21 -592 1 -744 20 -141 81
-383 129 -513 79 -214 222 -471 368 -664 95 -125 307 -342 432 -443 350 -282
737 -456 1200 -538 171 -31 511 -38 696 -15 255 32 526 106 747 205 327 146
664 398 892 667 l72 84 2669 0 2668 0 16 30 c13 26 15 204 15 1531 0 1130 -3
1511 -12 1541 -8 26 -20 43 -36 49 -13 5 -1113 9 -2662 9 l-2638 0 -65 78
c-94 113 -308 316 -423 403 -248 187 -561 343 -846 423 -244 69 -249 69 -668
72 l-385 3 -135 -28z m449 -582 c77 -26 170 -85 196 -126 10 -15 40 -50 65
-78 26 -27 80 -106 120 -175 40 -69 79 -135 87 -147 35 -58 57 19 67 238 3 64
11 130 17 147 20 57 112 66 224 22 28 -10 90 -28 140 -40 90 -21 217 -80 263
-123 32 -30 116 -170 129 -217 11 -37 22 -253 17 -330 -3 -47 -14 -131 -25
-188 -10 -57 -19 -110 -19 -118 0 -35 42 -5 166 116 l132 130 69 0 c65 0 71
-2 99 -32 17 -18 41 -51 54 -73 12 -22 40 -67 61 -101 47 -73 98 -225 106
-316 7 -75 -18 -215 -49 -284 -11 -23 -44 -70 -75 -105 -30 -35 -62 -74 -69
-85 -18 -27 -194 -181 -234 -206 -17 -10 -30 -24 -30 -32 0 -12 33 -13 214 -9
232 6 270 1 286 -42 10 -27 -13 -248 -34 -323 -8 -29 -14 -55 -14 -57 0 -31
-19 -99 -37 -135 -31 -59 -107 -148 -158 -183 -42 -28 -124 -57 -164 -57 -12
0 -40 -6 -60 -14 -47 -18 -150 -39 -160 -33 -5 3 -71 -1 -148 -9 -77 -7 -150
-13 -162 -14 -59 -1 -1 -65 132 -147 130 -81 160 -106 175 -152 19 -60 2 -108
-56 -157 -25 -22 -74 -67 -108 -101 -33 -33 -81 -71 -106 -83 -25 -13 -64 -36
-87 -52 -71 -48 -114 -58 -248 -58 l-122 0 -114 59 c-107 56 -238 149 -349
249 -49 43 -70 52 -70 28 0 -27 33 -162 46 -187 18 -37 44 -165 44 -220 0 -76
-28 -92 -213 -115 -152 -19 -222 -13 -347 28 -52 17 -78 34 -129 82 -34 34
-74 81 -89 106 -14 25 -38 66 -54 92 -26 41 -51 106 -104 268 -8 25 -17 67
-19 93 -11 131 -29 207 -48 207 -16 0 -52 -60 -132 -223 -115 -235 -138 -253
-248 -199 -34 17 -94 59 -133 94 -39 35 -94 82 -122 105 -113 95 -162 215
-162 395 0 77 5 109 31 188 18 52 41 107 51 123 11 15 30 55 43 88 14 34 42
80 64 104 56 61 91 135 63 135 -22 0 -112 -36 -153 -62 -25 -15 -64 -34 -86
-42 -22 -8 -58 -23 -81 -35 -28 -14 -60 -21 -100 -21 -73 0 -108 23 -118 78
-3 20 -16 84 -29 142 -33 150 -40 266 -21 373 19 107 22 113 110 210 77 85
184 153 294 186 31 10 76 27 98 39 23 12 63 26 90 32 75 18 124 41 124 60 0
22 -179 82 -311 105 -143 25 -170 51 -150 145 13 59 101 231 170 331 83 119
189 201 276 215 35 5 236 5 280 -1 70 -9 261 -68 325 -100 79 -40 130 -46 130
-16 0 10 -17 40 -39 67 -21 27 -46 65 -56 84 -10 19 -37 54 -60 76 -27 26 -50
62 -64 98 -25 68 -26 94 -5 124 33 48 311 167 424 182 94 12 214 4 289 -21z
m3057 -1271 c85 -45 142 -130 132 -198 -3 -24 -6 -25 -86 -28 l-82 -3 -21 36
c-27 46 -65 65 -127 65 -57 0 -102 -28 -102 -64 0 -42 38 -64 183 -107 127
-38 193 -73 224 -120 48 -73 39 -203 -19 -273 -35 -42 -108 -83 -167 -92 -23
-4 -44 -11 -47 -15 -7 -12 -89 -12 -112 0 -9 5 -42 16 -73 25 -110 32 -188
113 -197 207 -6 63 1 69 91 69 76 0 107 -11 107 -39 0 -59 103 -104 186 -82
45 12 58 24 67 59 10 42 -28 68 -138 97 -225 58 -305 126 -305 257 1 97 60
180 156 218 41 17 68 20 164 17 101 -3 121 -6 166 -29z m674 3 c5 -11 10 -41
10 -66 0 -69 -12 -85 -65 -85 l-45 0 -2 -160 c-1 -88 -3 -190 -3 -227 l0 -68
45 -3 c24 -2 50 -8 57 -14 17 -14 17 -130 1 -146 -8 -8 -67 -12 -198 -12 -131
0 -190 4 -198 12 -7 7 -12 39 -12 73 0 34 5 66 12 73 7 7 31 12 55 12 l43 0 0
230 0 230 -49 0 c-35 0 -51 4 -55 16 -11 28 -6 130 6 142 8 8 67 12 200 12
175 0 188 -1 198 -19z m358 -298 l2 -313 188 -2 187 -3 0 -80 0 -80 -280 0
-280 0 -3 385 c-1 212 0 391 3 398 3 9 28 12 92 10 l88 -3 3 -312z m632 55
c47 -142 88 -257 91 -258 3 0 43 116 90 258 l84 257 93 3 c75 2 93 0 98 -13 7
-17 -251 -742 -274 -767 -12 -15 -32 -18 -99 -18 l-84 0 -19 43 c-34 77 -252
691 -257 725 l-6 33 99 -3 99 -3 85 -257z m1155 239 c4 -13 5 -50 3 -82 l-3
-60 -197 -3 -198 -2 0 -65 0 -65 168 0 c117 0 172 -4 180 -12 16 -16 16 -130
0 -146 -8 -8 -63 -12 -180 -12 l-168 0 0 -80 0 -80 208 -2 207 -3 3 -68 c2
-42 -2 -74 -9 -83 -16 -19 -578 -21 -597 -2 -9 9 -12 108 -12 384 0 205 3 379
6 388 5 14 41 16 295 16 l289 0 5 -23z m680 -4 c94 -50 135 -123 135 -235 -1
-107 -43 -184 -132 -238 l-27 -16 85 -122 c46 -67 84 -131 84 -142 0 -19 -7
-20 -89 -20 -49 0 -97 3 -106 6 -9 4 -52 60 -96 126 l-80 119 3 87 c3 85 4 87
28 90 68 7 90 15 114 39 49 48 28 128 -41 154 -13 5 -64 9 -114 9 l-89 0 -2
-312 -3 -313 -90 0 -90 0 -3 385 c-1 212 0 391 3 398 4 11 51 13 237 10 216
-3 236 -5 273 -25z m-3050 -907 c60 -28 92 -61 105 -107 19 -66 17 -69 -56
-69 -65 0 -68 1 -99 37 -28 33 -37 37 -82 37 -37 1 -57 -4 -72 -18 -49 -44
-12 -79 129 -122 106 -33 155 -57 176 -89 57 -87 23 -224 -67 -270 -15 -8 -58
-22 -93 -30 -59 -14 -72 -14 -131 1 -122 31 -195 101 -195 189 l0 35 75 0 c66
0 75 -2 75 -19 0 -10 10 -29 23 -43 47 -50 170 -44 183 9 4 14 2 33 -3 42 -11
17 -24 22 -163 65 -142 45 -185 93 -178 200 5 78 30 115 100 150 72 36 199 37
273 2z m1149 12 c55 -17 131 -91 145 -143 14 -53 14 -303 0 -346 -27 -78 -98
-134 -206 -159 -47 -11 -61 -10 -123 9 -79 24 -144 74 -167 128 -9 23 -13 82
-13 198 0 179 8 212 62 262 62 58 200 81 302 51z m-446 -65 l3 -63 -86 0 -85
0 0 -236 c0 -143 -4 -243 -10 -255 -9 -15 -22 -19 -68 -19 -32 0 -63 5 -70 12
-9 9 -12 79 -12 255 l0 243 -85 0 c-61 0 -85 4 -86 13 -1 12 -1 95 0 110 1 4
112 6 249 5 l247 -3 3 -62z m1103 55 c139 -47 183 -231 80 -338 -20 -20 -45
-42 -56 -48 -18 -10 -16 -16 49 -111 43 -62 66 -106 63 -115 -5 -12 -21 -16
-67 -16 -34 0 -70 5 -81 10 -10 6 -46 51 -79 100 -59 88 -60 90 -60 159 0 75
5 81 60 81 19 0 36 10 54 31 29 34 30 38 16 73 -14 38 -59 56 -140 56 l-70 0
0 -244 c0 -198 -3 -246 -14 -255 -9 -7 -38 -11 -73 -9 l-58 3 -3 318 -2 317
173 0 c106 0 187 -5 208 -12z m739 -53 l0 -64 -157 -3 -158 -3 -3 -52 -3 -52
143 -3 143 -3 0 -60 0 -60 -142 -3 -143 -3 0 -64 0 -65 168 -2 167 -3 3 -56
c2 -39 -1 -59 -11 -68 -11 -8 -79 -11 -243 -9 l-229 3 -3 305 c-1 168 0 310 3
317 3 10 59 13 235 13 l230 0 0 -65z"/>
<path d="M2599 5876 c-2 -2 -31 -7 -64 -10 -108 -12 -168 -29 -214 -63 -25
-18 -62 -41 -81 -52 -67 -37 -155 -112 -197 -169 -24 -31 -65 -103 -92 -159
-42 -87 -51 -118 -67 -222 -16 -113 -16 -124 -1 -181 10 -33 20 -77 23 -98 8
-51 64 -179 105 -238 19 -27 66 -79 104 -117 59 -58 91 -79 200 -132 121 -60
137 -65 238 -76 167 -20 255 -5 401 65 63 31 118 61 121 66 4 6 31 29 61 51
31 22 71 65 90 94 18 30 39 57 45 61 15 9 75 142 100 219 30 92 35 215 14 331
-14 78 -29 121 -73 209 -48 94 -68 122 -139 192 -45 45 -104 94 -130 109 -27
15 -64 37 -83 49 -51 32 -90 42 -227 60 -138 17 -128 16 -134 11z m131 -232
c68 -7 102 -21 194 -79 87 -54 180 -157 197 -218 6 -23 21 -67 31 -97 29 -80
28 -224 -3 -305 -34 -93 -77 -165 -133 -223 -60 -63 -78 -73 -210 -119 -93
-32 -108 -35 -191 -31 -76 4 -106 11 -196 47 -59 23 -122 54 -141 69 -35 27
-122 141 -150 197 -29 57 -50 180 -46 272 3 77 8 98 40 166 23 47 62 106 100
148 51 58 80 79 153 117 125 64 196 75 355 56z"/>
<path d="M7049 4741 l-29 -29 0 -132 c0 -174 13 -199 108 -200 43 0 57 5 77
25 24 23 25 29 25 169 l0 144 -31 26 c-45 38 -110 37 -150 -3z"/>
</g>
</svg>
